<?xml version="1.0" encoding="UTF-8"?>
<svg id="Layer_2" data-name="Layer 2" xmlns="http://www.w3.org/2000/svg" viewBox="0 0 367.16 64.82">
  <defs>
    <style>
      .cls-1 {
        fill: #333;
      }

      .cls-1, .cls-2 {
        stroke-width: 0px;
      }

      .cls-2 {
        fill: #00b389;
      }
    </style>
  </defs>
  <g>
    <path class="cls-1" d="M20.99,64.73c-.73,0-1.41-.17-2.06-.5-.64-.34-1.05-.84-1.22-1.51L.08,5.79c-.06-.17-.08-.36-.08-.59,0-.5.17-.92.5-1.26.34-.34.76-.6,1.26-.8.5-.2,1.01-.29,1.51-.29s.95.11,1.34.34c.39.22.67.59.84,1.09l15.53,51.55L36.44,4.28c.17-.5.43-.87.8-1.09.36-.22.8-.34,1.3-.34s1.01.11,1.51.34c.5.22.94.5,1.3.84.36.34.55.76.55,1.26,0,.06-.01.13-.04.21-.03.08-.07.18-.13.29l-17.38,56.93c-.22.67-.66,1.18-1.3,1.51-.64.34-1.33.5-2.06.5Z"/>
    <path class="cls-1" d="M53.4,64.82c-3.14,0-5.82-.91-8.06-2.73-2.24-1.82-3.36-4.6-3.36-8.36,0-3.08.83-5.44,2.48-7.09s3.95-2.8,6.89-3.44c2.94-.64,6.34-.97,10.2-.97h4.28v-2.02c0-1.79-.32-3.57-.97-5.33-.64-1.76-1.68-3.22-3.11-4.37-1.43-1.15-3.37-1.72-5.84-1.72-1.85,0-3.36.2-4.53.59-1.18.39-2.1.8-2.77,1.22-.67.42-1.23.63-1.68.63-.67,0-1.2-.34-1.6-1.01-.39-.67-.59-1.31-.59-1.93,0-.73.57-1.41,1.72-2.06,1.15-.64,2.6-1.18,4.37-1.6s3.51-.63,5.25-.63c3.75,0,6.73.77,8.94,2.31,2.21,1.54,3.81,3.54,4.79,6,.98,2.46,1.47,5.09,1.47,7.89v21.83c0,.62-.24,1.13-.71,1.55-.48.42-1.13.63-1.97.63-.67,0-1.26-.21-1.76-.63-.5-.42-.76-.94-.76-1.55v-3.69c-1.46,1.62-3.22,3.11-5.29,4.45-2.07,1.34-4.53,2.02-7.39,2.02ZM54.74,60.2c1.85,0,3.61-.48,5.29-1.43,1.68-.95,3.06-2.11,4.16-3.48,1.09-1.37,1.64-2.67,1.64-3.91v-5.37h-3.53c-2.52,0-4.91.16-7.18.46s-4.11.96-5.54,1.97-2.14,2.6-2.14,4.79c0,2.41.71,4.17,2.14,5.29s3.15,1.68,5.16,1.68Z"/>
    <path class="cls-1" d="M84.8,64.23c-.73,0-1.36-.22-1.89-.67-.53-.45-.8-.95-.8-1.51V2.18c0-.62.27-1.1.8-1.47.53-.36,1.16-.55,1.89-.55.78,0,1.44.18,1.97.55.53.36.8.85.8,1.47v59.87c0,.56-.27,1.06-.8,1.51-.53.45-1.19.67-1.97.67Z"/>
    <path class="cls-1" d="M114.52,64.82c-2.97,0-5.65-.73-8.06-2.18-2.41-1.46-4.34-3.4-5.79-5.83-1.46-2.43-2.18-5.02-2.18-7.77v-22.42c0-.5.28-.98.84-1.43.56-.45,1.2-.67,1.93-.67s1.36.22,1.89.67c.53.45.8.92.8,1.43v22.42c0,1.85.47,3.58,1.43,5.21.95,1.62,2.21,2.95,3.78,3.99,1.57,1.04,3.33,1.55,5.29,1.55s3.81-.5,5.37-1.51c1.57-1.01,2.81-2.34,3.74-3.99.92-1.65,1.39-3.4,1.39-5.25v-22.5c0-.56.28-1.04.84-1.43.56-.39,1.2-.59,1.93-.59.84,0,1.5.2,1.97.59.47.39.71.87.71,1.43v22.5c0,2.85-.71,5.47-2.14,7.85-1.43,2.38-3.36,4.3-5.79,5.75-2.43,1.46-5.08,2.18-7.93,2.18Z"/>
    <path class="cls-1" d="M157.09,64.82c-3.53,0-6.65-.67-9.36-2.02-2.72-1.34-4.84-3.2-6.38-5.58-1.54-2.38-2.31-5.16-2.31-8.35v-9.4c0-2.8.73-5.37,2.18-7.72,1.46-2.35,3.4-4.23,5.84-5.63,2.44-1.4,5.11-2.1,8.02-2.1s5.39.66,7.77,1.97c2.38,1.32,4.3,3.12,5.75,5.42,1.46,2.3,2.18,4.93,2.18,7.89,0,2.18-.36,3.74-1.09,4.66-.73.92-1.64,1.5-2.73,1.72-1.09.22-2.25.34-3.48.34h-18.98v3.11c0,3.36,1.2,6.02,3.61,7.98,2.41,1.96,5.46,2.94,9.15,2.94,2.24,0,3.97-.28,5.21-.84,1.23-.56,2.2-1.12,2.9-1.68.7-.56,1.36-.84,1.97-.84.45,0,.85.15,1.22.46.36.31.64.66.84,1.05.2.39.29.76.29,1.09,0,.62-.5,1.37-1.51,2.27-1.01.9-2.46,1.67-4.37,2.31-1.9.64-4.14.97-6.72.97ZM144.5,41.98h16.79c1.68,0,2.8-.18,3.36-.55.56-.36.84-1.13.84-2.31,0-1.79-.43-3.5-1.3-5.12-.87-1.62-2.1-2.94-3.69-3.95-1.6-1.01-3.43-1.51-5.5-1.51-1.9,0-3.65.46-5.25,1.39-1.6.92-2.87,2.16-3.82,3.69-.95,1.54-1.43,3.26-1.43,5.16v3.19Z"/>
    <path class="cls-1" d="M181.61,64.23c-.73,0-1.36-.22-1.89-.67-.53-.45-.8-.95-.8-1.51V26.53c0-.62.27-1.1.8-1.47.53-.36,1.16-.55,1.89-.55s1.34.18,1.85.55c.5.36.76.85.76,1.47v3.86c.89-1.62,2.29-3.09,4.2-4.41,1.9-1.31,4.25-1.97,7.05-1.97s5.16.71,7.43,2.14c2.27,1.43,4.07,3.32,5.42,5.67,1.34,2.35,2.02,4.98,2.02,7.89v22.33c0,.73-.28,1.27-.84,1.64-.56.36-1.21.55-1.93.55-.62,0-1.22-.18-1.8-.55-.59-.36-.88-.91-.88-1.64v-22.33c0-1.79-.48-3.5-1.43-5.12-.95-1.62-2.21-2.95-3.78-3.99-1.57-1.04-3.3-1.55-5.21-1.55-1.68,0-3.29.43-4.83,1.3-1.54.87-2.8,2.09-3.78,3.65-.98,1.57-1.47,3.47-1.47,5.71v22.33c0,.56-.27,1.06-.8,1.51-.53.45-1.19.67-1.97.67Z"/>
    <path class="cls-1" d="M234.84,64.82c-2.85,0-5.49-.74-7.89-2.22-2.41-1.48-4.35-3.44-5.83-5.88-1.48-2.43-2.23-5.05-2.23-7.85v-9.15c0-2.8.73-5.39,2.18-7.77,1.46-2.38,3.39-4.29,5.79-5.75,2.41-1.46,5.07-2.18,7.98-2.18s5.5.71,7.93,2.14c2.44,1.43,4.38,3.32,5.84,5.67,1.46,2.35,2.18,4.98,2.18,7.89v9.15c0,2.74-.73,5.35-2.18,7.81-1.46,2.46-3.4,4.44-5.84,5.92-2.43,1.48-5.08,2.22-7.93,2.22ZM234.84,59.78c1.96,0,3.72-.52,5.29-1.55,1.57-1.04,2.83-2.39,3.78-4.07.95-1.68,1.43-3.44,1.43-5.29v-9.15c0-1.79-.46-3.5-1.39-5.12-.92-1.62-2.18-2.95-3.78-3.99-1.6-1.04-3.37-1.55-5.33-1.55s-3.72.52-5.29,1.55c-1.57,1.04-2.83,2.37-3.78,3.99-.95,1.62-1.43,3.33-1.43,5.12v9.15c0,1.85.47,3.61,1.43,5.29.95,1.68,2.22,3.04,3.82,4.07,1.59,1.04,3.34,1.55,5.25,1.55Z"/>
    <path class="cls-1" d="M273.21,64.82c-2.63,0-5.09-.74-7.39-2.22-2.3-1.48-4.11-3.46-5.46-5.92-1.34-2.46-2.01-5.07-2.01-7.81v-9.15c0-2.91.67-5.54,2.01-7.89,1.34-2.35,3.16-4.24,5.46-5.67,2.29-1.43,4.81-2.14,7.56-2.14s5.05.66,6.93,1.97c1.88,1.32,3.26,2.79,4.16,4.41V2.18c0-.62.28-1.1.84-1.47.56-.36,1.2-.55,1.93-.55.84,0,1.5.18,1.97.55.47.36.71.85.71,1.47v59.87c0,.56-.24,1.06-.71,1.51-.48.45-1.13.67-1.97.67-.67,0-1.26-.22-1.76-.67-.5-.45-.76-.95-.76-1.51v-3.69c-.9,1.74-2.39,3.25-4.49,4.53-2.1,1.29-4.44,1.93-7.01,1.93ZM274.14,59.78c2.01,0,3.79-.52,5.33-1.55,1.54-1.04,2.76-2.21,3.65-3.53.89-1.31,1.34-2.39,1.34-3.23v-11.75c0-2.24-.5-4.14-1.51-5.71-1.01-1.57-2.3-2.78-3.86-3.65-1.57-.87-3.19-1.3-4.87-1.3-1.9,0-3.64.52-5.21,1.55-1.57,1.04-2.83,2.37-3.78,3.99-.95,1.62-1.43,3.33-1.43,5.12v9.15c0,1.85.48,3.61,1.43,5.29.95,1.68,2.21,3.04,3.78,4.07,1.57,1.04,3.27,1.55,5.12,1.55Z"/>
    <path class="cls-1" d="M317.04,64.82c-3.53,0-6.65-.67-9.36-2.02-2.72-1.34-4.84-3.2-6.38-5.58-1.54-2.38-2.31-5.16-2.31-8.35v-9.4c0-2.8.73-5.37,2.18-7.72,1.46-2.35,3.4-4.23,5.84-5.63,2.43-1.4,5.11-2.1,8.02-2.1s5.39.66,7.77,1.97c2.38,1.32,4.29,3.12,5.75,5.42,1.46,2.3,2.18,4.93,2.18,7.89,0,2.18-.37,3.74-1.09,4.66-.73.92-1.64,1.5-2.73,1.72-1.09.22-2.25.34-3.48.34h-18.98v3.11c0,3.36,1.2,6.02,3.61,7.98,2.41,1.96,5.46,2.94,9.15,2.94,2.24,0,3.97-.28,5.21-.84,1.23-.56,2.2-1.12,2.9-1.68.7-.56,1.36-.84,1.97-.84.45,0,.85.15,1.22.46.36.31.64.66.84,1.05.2.39.29.76.29,1.09,0,.62-.5,1.37-1.51,2.27-1.01.9-2.46,1.67-4.37,2.31-1.9.64-4.14.97-6.72.97ZM304.45,41.98h16.79c1.68,0,2.8-.18,3.36-.55.56-.36.84-1.13.84-2.31,0-1.79-.43-3.5-1.3-5.12-.87-1.62-2.1-2.94-3.69-3.95-1.59-1.01-3.43-1.51-5.5-1.51-1.9,0-3.65.46-5.25,1.39-1.59.92-2.87,2.16-3.82,3.69-.95,1.54-1.43,3.26-1.43,5.16v3.19Z"/>
  </g>
  <g>
    <polygon class="cls-2" points="355.1 2.97 353.38 5.95 353.38 5.95 352.24 7.92 352.24 7.92 350.53 10.89 350.53 10.89 343.04 23.86 339.6 23.86 348.81 7.92 348.81 7.92 350.53 4.94 350.53 4.94 351.66 2.97 351.66 2.97 353.28 .18 353.28 .18 353.38 0 355.1 2.97 355.1 2.97 355.1 2.97"/>
    <polygon class="cls-2" points="363.72 23.86 354.52 7.92 356.23 4.94 367.16 23.86 363.72 23.86"/>
    <polygon class="cls-2" points="358.01 23.86 351.66 12.86 353.38 9.88 361.45 23.86 358.01 23.86"/>
  </g>
</svg>